<?xml version="1.0" encoding="UTF-8"?>
<svg xmlns="http://www.w3.org/2000/svg" viewBox="0 0 500 500">
  <defs>
    <style>
      .uuid-f41b7577-448b-401b-b237-f7859a6b8264 {
        letter-spacing: .08em;
      }

      .uuid-f41b7577-448b-401b-b237-f7859a6b8264, .uuid-e0e18dda-44d2-47c1-9a5f-8373d727d546 {
        font-family: Comfortaa-Bold, Comfortaa;
        font-size: 24.05px;
        font-weight: 700;
      }

      .uuid-f41b7577-448b-401b-b237-f7859a6b8264, .uuid-e0e18dda-44d2-47c1-9a5f-8373d727d546, .uuid-90e06280-4cae-4a2e-891d-34128ceb6151 {
        fill: #313130;
      }

      .uuid-e0e18dda-44d2-47c1-9a5f-8373d727d546 {
        letter-spacing: .18em;
      }

      .uuid-90e06280-4cae-4a2e-891d-34128ceb6151, .uuid-7bc5f6a0-0c35-4cd1-bbb5-d39b61bd560b {
        stroke-width: 0px;
      }

      .uuid-7bc5f6a0-0c35-4cd1-bbb5-d39b61bd560b {
        fill: #eeb4ff;
      }
    </style>
  </defs>
  <g id="uuid-684f5cc7-7736-44df-bd51-993acf9a428e" data-name="OBJECTS">
    <g>
      <path class="uuid-7bc5f6a0-0c35-4cd1-bbb5-d39b61bd560b" d="m203.5,300.92h0c-15.92,0-28.83-12.91-28.83-28.83h0c0-17.29,14.02-31.31,31.31-31.31h26.36v31.31c0,15.92-12.91,28.83-28.83,28.83Z"/>
      <path class="uuid-90e06280-4cae-4a2e-891d-34128ceb6151" d="m325.33,178.44c0,27.86-15.83,51.86-46.93,59.64-6.92,1.75-14.57,2.69-22.97,2.69h-22.85v-59.27h-.22c-1.88-.22-3.78-.32-5.71-.32-27.04,0-49.25,20.65-51.74,47v-86.3c0-14.66,11.88-26.54,26.54-26.54h53.97c46.23,0,69.89,25.96,69.89,63.1Z"/>
    </g>
  </g>
  <g id="uuid-730b155d-6d22-4fd3-a129-8f5956cd0183" data-name="TEXTS">
    <text class="uuid-f41b7577-448b-401b-b237-f7859a6b8264" transform="translate(174.92 349.03)"><tspan x="0" y="0">PRÄMIEN</tspan></text>
    <text class="uuid-e0e18dda-44d2-47c1-9a5f-8373d727d546" transform="translate(174.92 376.68)"><tspan x="0" y="0">PRO</tspan></text>
  </g>
</svg>